<svg width="161" height="87" viewBox="0 0 161 87" fill="none" xmlns="http://www.w3.org/2000/svg">
<g filter="url(#filter0_f_1416_6)">
<circle cx="35.394" cy="55.5983" r="5.28584" fill="#FFD9C0"/>
</g>
<g filter="url(#filter1_f_1416_6)">
<circle cx="34.6892" cy="56.3032" r="4.34614" fill="#FFD9C0"/>
</g>
<g filter="url(#filter2_ddii_1416_6)">
<rect x="24" y="24" width="39.376" height="39.376" rx="19.688" fill="url(#paint0_radial_1416_6)" shape-rendering="crispEdges"/>
<rect x="24" y="24" width="39.376" height="39.376" rx="19.688" stroke="#FF7117" stroke-opacity="0.08" stroke-width="0.200898" shape-rendering="crispEdges"/>
<rect x="24" y="24" width="39.376" height="39.376" rx="19.688" stroke="white" stroke-opacity="0.31" stroke-width="0.200898" shape-rendering="crispEdges"/>
<path d="M39.9742 34.0644H44.6019L46.6443 52.4199H41.5254L41.3444 48.8264H36.9495L35.269 52.4199H30.1243L39.9742 34.0644ZM41.2669 45.4655L41.0601 39.7779L38.3972 45.4655H41.2669ZM51.1877 34.0644H56.229L52.3252 52.4199H47.2839L51.1877 34.0644Z" fill="white"/>
</g>
<path d="M66.6438 46.3186C66.6438 44.8112 66.9453 43.4444 67.5483 42.2183C68.1713 40.9722 69.0155 39.9873 70.0808 39.2637C71.146 38.5201 72.3721 38.1482 73.759 38.1482C74.9649 38.1482 76.0503 38.4598 77.015 39.0828C77.9999 39.7059 78.7637 40.4797 79.3064 41.4043V32.1787H82.6228V50.449C82.6228 50.8309 82.6931 51.1023 82.8338 51.263C82.9745 51.4238 83.2056 51.5143 83.5272 51.5344V54.1875C82.9042 54.288 82.4218 54.3382 82.0801 54.3382C81.457 54.3382 80.9244 54.1574 80.4822 53.7956C80.0601 53.4338 79.839 53.0016 79.8189 52.4992L79.7888 51.3233C79.1858 52.3283 78.3718 53.1122 77.3467 53.675C76.3216 54.2176 75.2564 54.489 74.1509 54.489C73.0655 54.489 72.0606 54.2779 71.136 53.8559C70.2315 53.4338 69.4376 52.8408 68.7542 52.0771C68.0909 51.3133 67.5684 50.439 67.1865 49.4541C66.8247 48.4692 66.6438 47.4241 66.6438 46.3186ZM79.3064 48.5195V44.3891C79.0853 43.7459 78.7235 43.1731 78.221 42.6706C77.7386 42.148 77.1859 41.736 76.5628 41.4345C75.9598 41.133 75.3569 40.9822 74.7539 40.9822C74.0504 40.9822 73.4072 41.133 72.8243 41.4345C72.2616 41.736 71.7691 42.1379 71.347 42.6404C70.945 43.1429 70.6335 43.7157 70.4124 44.3589C70.1913 45.0021 70.0808 45.6754 70.0808 46.3789C70.0808 47.1025 70.2014 47.7859 70.4426 48.429C70.6838 49.0521 71.0254 49.6149 71.4676 50.1174C71.9299 50.5998 72.4525 50.9817 73.0354 51.263C73.6384 51.5243 74.2916 51.655 74.9951 51.655C75.4372 51.655 75.8794 51.5746 76.3216 51.4138C76.7839 51.253 77.216 51.0319 77.618 50.7505C78.0401 50.4691 78.3919 50.1375 78.6732 49.7556C78.9747 49.3737 79.1858 48.9617 79.3064 48.5195ZM93.076 54.489C91.8499 54.489 90.7344 54.2779 89.7295 53.8559C88.7446 53.4137 87.8904 52.8207 87.1668 52.0771C86.4432 51.3133 85.8804 50.449 85.4784 49.4843C85.0966 48.4994 84.9056 47.4542 84.9056 46.3488C84.9056 44.8614 85.2473 43.5047 85.9307 42.2786C86.6141 41.0325 87.5688 40.0376 88.7948 39.2939C90.0209 38.5301 91.458 38.1482 93.1061 38.1482C94.7543 38.1482 96.1713 38.5301 97.3572 39.2939C98.5631 40.0376 99.4977 41.0224 100.161 42.2485C100.824 43.4745 101.156 44.7911 101.156 46.198C101.156 46.4392 101.146 46.6703 101.126 46.8914C101.106 47.0924 101.086 47.2633 101.065 47.404H88.433C88.4933 48.3285 88.7446 49.1426 89.1868 49.846C89.6491 50.5294 90.2319 51.0721 90.9354 51.4741C91.6389 51.856 92.3926 52.0469 93.1966 52.0469C94.081 52.0469 94.9151 51.8258 95.699 51.3836C96.5029 50.9415 97.0456 50.3586 97.327 49.635L100.161 50.449C99.8193 51.2128 99.2967 51.9062 98.5933 52.5293C97.9099 53.1323 97.0959 53.6147 96.1512 53.9765C95.2065 54.3181 94.1815 54.489 93.076 54.489ZM88.3426 45.2031H97.8697C97.8094 44.2986 97.5481 43.5047 97.0858 42.8213C96.6436 42.1178 96.0708 41.5752 95.3673 41.1933C94.6839 40.7913 93.9202 40.5903 93.076 40.5903C92.2519 40.5903 91.4881 40.7913 90.7847 41.1933C90.1013 41.5752 89.5385 42.1178 89.0963 42.8213C88.6541 43.5047 88.4029 44.2986 88.3426 45.2031ZM117.097 54.1875H113.78V45.3538C113.78 43.8866 113.539 42.8113 113.057 42.1279C112.594 41.4445 111.901 41.1028 110.976 41.1028C110.333 41.1028 109.69 41.2636 109.047 41.5852C108.424 41.9068 107.861 42.349 107.358 42.9118C106.856 43.4544 106.494 44.0876 106.273 44.8112V54.1875H102.957V38.4196H105.972V41.5852C106.374 40.8817 106.896 40.2788 107.539 39.7763C108.203 39.2537 108.946 38.8517 109.77 38.5703C110.594 38.2889 111.469 38.1482 112.393 38.1482C113.338 38.1482 114.112 38.3191 114.715 38.6608C115.338 39.0024 115.82 39.4748 116.162 40.0778C116.524 40.6606 116.765 41.344 116.885 42.1279C117.026 42.8917 117.097 43.7057 117.097 44.57V54.1875ZM128.697 53.3735C128.416 53.5142 128.064 53.6649 127.642 53.8257C127.22 53.9865 126.737 54.1272 126.195 54.2478C125.672 54.3684 125.129 54.4287 124.567 54.4287C123.883 54.4287 123.25 54.3081 122.667 54.0669C122.084 53.8257 121.612 53.4438 121.25 52.9212C120.909 52.3786 120.738 51.6851 120.738 50.841V40.9822H118.657V38.4196H120.738V33.2339H124.054V38.4196H127.491V40.9822H124.054V49.7857C124.094 50.3284 124.265 50.7304 124.567 50.9917C124.888 51.253 125.28 51.3836 125.742 51.3836C126.205 51.3836 126.647 51.3032 127.069 51.1424C127.491 50.9817 127.803 50.851 128.004 50.7505L128.697 53.3735ZM130.09 54.1875V38.4196H133.406V54.1875H130.09ZM130.09 35.8267V32.1787H133.406V35.8267H130.09ZM145.26 53.3735C144.979 53.5142 144.627 53.6649 144.205 53.8257C143.783 53.9865 143.3 54.1272 142.758 54.2478C142.235 54.3684 141.693 54.4287 141.13 54.4287C140.446 54.4287 139.813 54.3081 139.23 54.0669C138.647 53.8257 138.175 53.4438 137.813 52.9212C137.472 52.3786 137.301 51.6851 137.301 50.841V40.9822H135.221V38.4196H137.301V33.2339H140.617V38.4196H144.054V40.9822H140.617V49.7857C140.657 50.3284 140.828 50.7304 141.13 50.9917C141.451 51.253 141.843 51.3836 142.306 51.3836C142.768 51.3836 143.21 51.3032 143.632 51.1424C144.054 50.9817 144.366 50.851 144.567 50.7505L145.26 53.3735ZM147.166 57.8958C147.467 57.936 147.759 57.9762 148.04 58.0164C148.342 58.0767 148.583 58.1069 148.764 58.1069C149.106 58.1069 149.397 57.9963 149.638 57.7752C149.899 57.5742 150.161 57.1924 150.422 56.6296C150.683 56.0668 151.005 55.2528 151.387 54.1875L144.905 38.4196H148.372L153.196 50.8108L157.477 38.4196H160.673L153.527 57.8355C153.306 58.4184 152.985 58.951 152.563 59.4334C152.141 59.9359 151.618 60.3279 150.995 60.6092C150.372 60.8906 149.638 61.0313 148.794 61.0313C148.553 61.0313 148.302 61.0112 148.04 60.971C147.779 60.9308 147.488 60.8705 147.166 60.7901V57.8958Z" fill="white"/>
<defs>
<filter id="filter0_f_1416_6" x="22.0267" y="42.231" width="26.7347" height="26.7352" filterUnits="userSpaceOnUse" color-interpolation-filters="sRGB">
<feFlood flood-opacity="0" result="BackgroundImageFix"/>
<feBlend mode="normal" in="SourceGraphic" in2="BackgroundImageFix" result="shape"/>
<feGaussianBlur stdDeviation="4.04073" result="effect1_foregroundBlur_1416_6"/>
</filter>
<filter id="filter1_f_1416_6" x="22.2615" y="43.8756" width="24.8553" height="24.8543" filterUnits="userSpaceOnUse" color-interpolation-filters="sRGB">
<feFlood flood-opacity="0" result="BackgroundImageFix"/>
<feBlend mode="normal" in="SourceGraphic" in2="BackgroundImageFix" result="shape"/>
<feGaussianBlur stdDeviation="4.04073" result="effect1_foregroundBlur_1416_6"/>
</filter>
<filter id="filter2_ddii_1416_6" x="0.407019" y="0.407751" width="86.5619" height="86.5615" filterUnits="userSpaceOnUse" color-interpolation-filters="sRGB">
<feFlood flood-opacity="0" result="BackgroundImageFix"/>
<feColorMatrix in="SourceAlpha" type="matrix" values="0 0 0 0 0 0 0 0 0 0 0 0 0 0 0 0 0 0 127 0" result="hardAlpha"/>
<feOffset/>
<feGaussianBlur stdDeviation="11.7463"/>
<feComposite in2="hardAlpha" operator="out"/>
<feColorMatrix type="matrix" values="0 0 0 0 1 0 0 0 0 0.416667 0 0 0 0 0 0 0 0 0.3 0"/>
<feBlend mode="normal" in2="BackgroundImageFix" result="effect1_dropShadow_1416_6"/>
<feColorMatrix in="SourceAlpha" type="matrix" values="0 0 0 0 0 0 0 0 0 0 0 0 0 0 0 0 0 0 127 0" result="hardAlpha"/>
<feOffset/>
<feGaussianBlur stdDeviation="1.37432"/>
<feComposite in2="hardAlpha" operator="out"/>
<feColorMatrix type="matrix" values="0 0 0 0 0.683333 0 0 0 0 0.683333 0 0 0 0 0.683333 0 0 0 0.1 0"/>
<feBlend mode="normal" in2="effect1_dropShadow_1416_6" result="effect2_dropShadow_1416_6"/>
<feBlend mode="normal" in="SourceGraphic" in2="effect2_dropShadow_1416_6" result="shape"/>
<feColorMatrix in="SourceAlpha" type="matrix" values="0 0 0 0 0 0 0 0 0 0 0 0 0 0 0 0 0 0 127 0" result="hardAlpha"/>
<feOffset dy="-2.81257"/>
<feGaussianBlur stdDeviation="0.803591"/>
<feComposite in2="hardAlpha" operator="arithmetic" k2="-1" k3="1"/>
<feColorMatrix type="matrix" values="0 0 0 0 1 0 0 0 0 0.753333 0 0 0 0 0.691667 0 0 0 0.35 0"/>
<feBlend mode="normal" in2="shape" result="effect3_innerShadow_1416_6"/>
<feColorMatrix in="SourceAlpha" type="matrix" values="0 0 0 0 0 0 0 0 0 0 0 0 0 0 0 0 0 0 127 0" result="hardAlpha"/>
<feOffset dy="2.81257"/>
<feGaussianBlur stdDeviation="0.803591"/>
<feComposite in2="hardAlpha" operator="arithmetic" k2="-1" k3="1"/>
<feColorMatrix type="matrix" values="0 0 0 0 0.1125 0 0 0 0 0.0436422 0 0 0 0 0 0 0 0 1 0"/>
<feBlend mode="normal" in2="effect3_innerShadow_1416_6" result="effect4_innerShadow_1416_6"/>
</filter>
<radialGradient id="paint0_radial_1416_6" cx="0" cy="0" r="1" gradientUnits="userSpaceOnUse" gradientTransform="translate(32.5748 59.8263) rotate(-62.4253) scale(27.0454)">
<stop stop-color="#FFCDB8"/>
<stop offset="0.5" stop-color="#FF4400"/>
<stop offset="0.75" stop-color="#532100"/>
<stop offset="1" stop-color="#130E0C"/>
</radialGradient>
</defs>
</svg>
